# xmcd
#
# Track frame offsets: 
#        150
#        12175
#        32605
#        48920
#        61435
#        75360
#        90290
#        99295
#        111140
#        131950
#        147715
#        177540
#        188105
#        198975
#        214455
#        223255
#        231700
#        243395
#        253955
#        260530
#
# Disc length: 3642 seconds
#
# Revision: 2
# Processed by: cddbd v1.5.2PL0 Copyright (c) Steve Scherf et al.
# Submitted via: ExactAudioCopy v0.95b1
#
DISCID=2f0e3814
DTITLE=Various Artist - Merelaulud
DYEAR=1995
DGENRE=Estrade
TTITLE0=Endel Aimre - Laev tõstis purjed
TTITLE1=Ott Raukas - Igal majakal oma tuli
TTITLE2=Georg Ots - Meremehe laul
TTITLE3=Viktor Gurjev, Georg Ots - Küll sinust meri nehe teeb
TTITLE4=Artur Rinne - Mere muinasjutt
TTITLE5=Artur Rinne - Sadama tuled
TTITLE6=Artur Rinne - Ristina, väike sadam
TTITLE7=Kalmer Tennosaar - Mere igatsus
TTITLE8=Vello Orumets - Popurrii merelauludest
TTITLE9=Voldemar Kuslap, Helgi Sallo - Purjesportlaste laul
TTITLE10=Uno Loop, Jaak Joala - Popurrii kalurilauludest
TTITLE11=Jaak Joala - Rannakolhoosis
TTITLE12=Jaak Joala - Meri, mu tuhandenäoline meri
TTITLE13=RAM 1 - Mere legend
TTITLE14=RAM 1 - Kolm laeva
TTITLE15=Kukespillid - Meremehe laul
TTITLE16=Kukespillid - Purjedes oli lust
TTITLE17=Kukespillid - Puhub tuul
TTITLE18=Kukespillid - Kihnu neiu
TTITLE19=Kukespillid - Mere pidu
EXTD=
EXTT0=
EXTT1=
EXTT2=
EXTT3=
EXTT4=
EXTT5=
EXTT6=
EXTT7=
EXTT8=
EXTT9=
EXTT10=
EXTT11=
EXTT12=
EXTT13=
EXTT14=
EXTT15=
EXTT16=
EXTT17=
EXTT18=
EXTT19=
PLAYORDER=
